<svg width="133" height="14" fill="none" xmlns="http://www.w3.org/2000/svg"><path d="M13.438 13V7.56c0-.28-.02-.547-.06-.8a1.943 1.943 0 00-.22-.68 1.162 1.162 0 00-.44-.44c-.174-.12-.407-.18-.7-.18-.28 0-.527.06-.74.18-.2.12-.374.28-.52.48-.134.2-.234.433-.3.7-.067.253-.1.52-.1.8V13h-3.28V7.32c0-.573-.114-1.027-.34-1.36-.227-.333-.587-.5-1.08-.5-.52 0-.927.207-1.22.62-.28.413-.42.92-.42 1.52V13h-3.3V3.04h3.18v1.38h.04c.12-.213.266-.42.44-.62.186-.2.406-.373.66-.52a3.44 3.44 0 01.84-.38 3.7 3.7 0 011.04-.14c.72 0 1.326.147 1.82.44.506.293.9.713 1.18 1.26.333-.52.76-.933 1.28-1.24.52-.307 1.153-.46 1.9-.46.68 0 1.246.127 1.7.38.466.24.84.56 1.12.96.28.387.48.827.6 1.32.133.48.2.953.2 1.42V13h-3.28zm12.236-4.34h-.42c-.36 0-.727.02-1.1.06-.36.027-.687.087-.98.18-.28.093-.513.233-.7.42-.187.173-.28.407-.28.7 0 .187.04.347.12.48.093.133.207.24.34.32.133.08.287.14.46.18.173.027.34.04.5.04.667 0 1.173-.18 1.52-.54.36-.373.54-.873.54-1.5v-.34zm-6.02-4.26a5.76 5.76 0 012.04-1.26 7.109 7.109 0 012.4-.42c.84 0 1.547.107 2.12.32.587.2 1.06.52 1.42.96.36.427.62.973.78 1.64.173.653.26 1.433.26 2.34V13h-3v-1.06h-.06c-.253.413-.64.733-1.16.96-.507.227-1.06.34-1.66.34-.4 0-.813-.053-1.24-.16a3.75 3.75 0 01-1.18-.52 2.857 2.857 0 01-.86-.96c-.227-.4-.34-.893-.34-1.48 0-.72.193-1.3.58-1.74.4-.44.907-.78 1.52-1.02a8.2 8.2 0 012.08-.48c.76-.08 1.5-.12 2.22-.12V6.6c0-.493-.173-.853-.52-1.08-.347-.24-.773-.36-1.28-.36-.467 0-.92.1-1.36.3-.427.2-.793.44-1.1.72l-1.66-1.78zm18.528 1.32a2.545 2.545 0 00-.44-.08 4.019 4.019 0 00-.4-.02c-.44 0-.813.08-1.12.24a2.42 2.42 0 00-.72.58c-.173.227-.3.473-.38.74-.08.267-.12.5-.12.7V13h-3.28V3.04h3.16v1.44h.04c.254-.507.614-.92 1.08-1.24.467-.32 1.007-.48 1.62-.48.133 0 .26.007.38.02.133.013.24.033.32.06l-.14 2.88zm7.637 2.94h-.42c-.36 0-.726.02-1.1.06-.36.027-.686.087-.98.18-.28.093-.513.233-.7.42-.186.173-.28.407-.28.7 0 .187.04.347.12.48.094.133.207.24.34.32.134.08.287.14.46.18.174.027.34.04.5.04.667 0 1.174-.18 1.52-.54.36-.373.54-.873.54-1.5v-.34zM39.8 4.4a5.76 5.76 0 012.04-1.26 7.109 7.109 0 012.4-.42c.84 0 1.547.107 2.12.32.587.2 1.06.52 1.42.96.36.427.62.973.78 1.64.174.653.26 1.433.26 2.34V13h-3v-1.06h-.06c-.253.413-.64.733-1.16.96a4.01 4.01 0 01-1.66.34c-.4 0-.813-.053-1.24-.16a3.75 3.75 0 01-1.18-.52 2.857 2.857 0 01-.86-.96c-.226-.4-.34-.893-.34-1.48 0-.72.194-1.3.58-1.74.4-.44.907-.78 1.52-1.02a8.2 8.2 0 012.08-.48c.76-.08 1.5-.12 2.22-.12V6.6c0-.493-.173-.853-.52-1.08-.346-.24-.773-.36-1.28-.36-.466 0-.92.1-1.36.3-.426.2-.793.44-1.1.72L39.8 4.4zm15.433 1.1v3.8c0 .467.087.82.26 1.06.187.227.514.34.98.34.16 0 .327-.013.5-.04.187-.027.34-.067.46-.12l.04 2.4c-.227.08-.513.147-.86.2a5.46 5.46 0 01-1.04.1c-.666 0-1.227-.08-1.68-.24-.453-.173-.82-.413-1.1-.72a2.99 2.99 0 01-.58-1.12c-.12-.44-.18-.927-.18-1.46V5.5h-1.6V3.04h1.58V.42h3.22v2.62h2.34V5.5h-2.34zm15.042 2.48c0 .813-.147 1.553-.44 2.22a5.089 5.089 0 01-1.2 1.68 5.59 5.59 0 01-1.76 1.06c-.667.253-1.38.38-2.14.38a6.08 6.08 0 01-2.14-.38 5.59 5.59 0 01-1.76-1.06 5.236 5.236 0 01-1.18-1.68c-.294-.667-.44-1.407-.44-2.22 0-.813.146-1.547.44-2.2a5.009 5.009 0 011.18-1.66 5.305 5.305 0 011.76-1.04 6.38 6.38 0 012.14-.36c.76 0 1.473.12 2.14.36a5.32 5.32 0 011.76 1.04 4.874 4.874 0 011.2 1.66c.293.653.44 1.387.44 2.2zm-3.16 0c0-.32-.054-.633-.16-.94a2.373 2.373 0 00-.46-.8c-.2-.24-.447-.433-.74-.58a2.252 2.252 0 00-1.02-.22c-.387 0-.727.073-1.02.22a2.27 2.27 0 00-.74.58 2.576 2.576 0 00-.44.8 3.212 3.212 0 000 1.88c.106.307.26.587.46.84.2.24.446.433.74.58.293.147.633.22 1.02.22.386 0 .726-.073 1.02-.22.293-.147.54-.34.74-.58.2-.253.346-.533.44-.84.106-.307.16-.62.16-.94zM79.49 13V7.56c0-.28-.026-.547-.08-.8a1.924 1.924 0 00-.22-.66c-.106-.2-.26-.353-.46-.46-.186-.12-.426-.18-.72-.18-.293 0-.553.06-.78.18a1.49 1.49 0 00-.54.46c-.146.2-.26.433-.34.7-.066.253-.1.52-.1.8V13h-3.3V3.04h3.18v1.38h.04c.12-.213.274-.42.46-.62.2-.213.427-.393.68-.54.267-.147.554-.267.86-.36.307-.093.634-.14.98-.14.667 0 1.234.12 1.7.36.467.24.84.553 1.12.94.294.373.5.807.62 1.3.134.493.2.987.2 1.48V13h-3.3zm10.125-1.76c0 .56-.2 1.027-.6 1.4-.387.373-.854.56-1.4.56a2.04 2.04 0 01-.8-.16 1.994 1.994 0 01-1.08-1 1.9 1.9 0 01-.16-.78 1.876 1.876 0 01.6-1.38c.186-.187.4-.333.64-.44.253-.107.52-.16.8-.16.546 0 1.013.187 1.4.56.4.373.6.84.6 1.4z" fill="#F30383"/><path d="M99.33 6.26a1.99 1.99 0 00-.76-.58 2.33 2.33 0 00-.98-.22c-.346 0-.66.073-.94.22-.28.133-.52.32-.72.56-.2.227-.36.493-.48.8-.106.307-.16.633-.16.98s.054.673.16.98c.107.307.26.58.46.82.214.227.46.407.74.54.294.133.62.2.98.2.334 0 .66-.06.98-.18.334-.133.6-.32.8-.56l1.821 2.22c-.414.4-.947.713-1.6.94a6.3 6.3 0 01-2.08.34c-.787 0-1.52-.12-2.2-.36a5.266 5.266 0 01-1.78-1.04 5.237 5.237 0 01-1.18-1.68c-.28-.653-.42-1.393-.42-2.22 0-.813.14-1.547.42-2.2a5.01 5.01 0 011.18-1.66 5.1 5.1 0 011.78-1.06 6.194 6.194 0 013.24-.28c.36.067.7.16 1.02.28.333.107.633.247.9.42.28.16.52.34.72.54l-1.9 2.2zm14.359 1.72c0 .813-.146 1.553-.44 2.22a5.08 5.08 0 01-1.2 1.68 5.578 5.578 0 01-1.76 1.06c-.666.253-1.38.38-2.14.38a6.09 6.09 0 01-2.14-.38 5.6 5.6 0 01-1.76-1.06 5.251 5.251 0 01-1.18-1.68c-.293-.667-.44-1.407-.44-2.22 0-.813.147-1.547.44-2.2a5.023 5.023 0 011.18-1.66 5.315 5.315 0 011.76-1.04c.68-.24 1.394-.36 2.14-.36.76 0 1.474.12 2.14.36a5.3 5.3 0 011.76 1.04 4.866 4.866 0 011.2 1.66c.294.653.44 1.387.44 2.2zm-3.16 0c0-.32-.053-.633-.16-.94a2.36 2.36 0 00-.46-.8 2.27 2.27 0 00-.74-.58 2.25 2.25 0 00-1.02-.22c-.386 0-.726.073-1.02.22-.293.147-.54.34-.74.58a2.597 2.597 0 00-.44.8 3.222 3.222 0 000 1.88c.107.307.26.587.46.84.2.24.447.433.74.58.294.147.634.22 1.02.22a2.25 2.25 0 001.02-.22c.294-.147.54-.34.74-.58.2-.253.347-.533.44-.84.107-.307.16-.62.16-.94zM129.086 13V7.56c0-.28-.02-.547-.06-.8a1.937 1.937 0 00-.22-.68 1.162 1.162 0 00-.44-.44c-.173-.12-.407-.18-.7-.18-.28 0-.527.06-.74.18-.2.12-.373.28-.52.48-.133.2-.233.433-.3.7-.067.253-.1.52-.1.8V13h-3.28V7.32c0-.573-.113-1.027-.34-1.36-.227-.333-.587-.5-1.08-.5-.52 0-.927.207-1.22.62-.28.413-.42.92-.42 1.52V13h-3.3V3.04h3.18v1.38h.04c.12-.213.267-.42.44-.62.187-.2.407-.373.66-.52.253-.16.533-.287.84-.38.32-.093.667-.14 1.04-.14.72 0 1.327.147 1.82.44.507.293.9.713 1.18 1.26a3.79 3.79 0 011.28-1.24c.52-.307 1.153-.46 1.9-.46.68 0 1.247.127 1.7.38.467.24.84.56 1.12.96.28.387.48.827.6 1.32.133.48.2.953.2 1.42V13h-3.28z" fill="#fff"/></svg>