<svg viewBox="0 0 22 22" xmlns="http://www.w3.org/2000/svg" xmlns:xlink="http://www.w3.org/1999/xlink"><style>:root&gt;svg{display:none}:root&gt;svg:target{display:block}</style><svg fill="none" viewBox="0 0 12 10" id="css--check" xmlns="http://www.w3.org/2000/svg"><rect y="4.325" width="2" height="6.845" rx="1" transform="rotate(-45.3 0 4.325)" fill="#fff"/><rect x="9.739" width="2" height="10.061" rx="1" transform="rotate(38.251 9.739 0)" fill="#fff"/></svg><svg fill="none" viewBox="0 0 22 22" id="css--check-circle" xmlns="http://www.w3.org/2000/svg"><g clip-path="url(#bclip0_11_47)" fill="#E00179"><path d="M11 20.625a9.625 9.625 0 110-19.25 9.625 9.625 0 010 19.25zM11 22a11 11 0 100-22 11 11 0 000 22z"/><path d="M15.084 6.834a.32.32 0 00-.028.03l-4.775 6.084-2.878-2.879a1.031 1.031 0 00-1.458 1.458l3.639 3.64a1.03 1.03 0 001.483-.028l5.49-6.861a1.031 1.031 0 00-1.473-1.444z"/></g><defs><clipPath id="bclip0_11_47"><path fill="#fff" d="M0 0h22v22H0z"/></clipPath></defs></svg><svg fill="none" viewBox="0 0 18 18" id="css--tooltip" xmlns="http://www.w3.org/2000/svg"><path d="M18 9A9 9 0 110 9a9 9 0 0118 0zM6.183 6.787h.928c.155 0 .28-.127.3-.281.1-.738.607-1.276 1.51-1.276.77 0 1.477.386 1.477 1.314 0 .715-.42 1.043-1.085 1.542-.757.55-1.357 1.193-1.314 2.236l.003.244a.281.281 0 00.281.277h.913a.281.281 0 00.281-.281v-.119c0-.807.307-1.043 1.136-1.671.685-.521 1.4-1.1 1.4-2.313 0-1.7-1.436-2.521-3.007-2.521-1.426 0-2.987.663-3.094 2.571a.267.267 0 00.271.278zm2.616 7.249c.686 0 1.157-.444 1.157-1.043 0-.621-.472-1.058-1.157-1.058-.657 0-1.135.437-1.135 1.058 0 .6.478 1.043 1.136 1.043h-.001z" fill="#4F5565"/></svg></svg>