<svg viewBox="0 0 22 22" xmlns="http://www.w3.org/2000/svg" xmlns:xlink="http://www.w3.org/1999/xlink"><style>:root&gt;svg{display:none}:root&gt;svg:target{display:block}</style><svg fill="none" viewBox="0 0 22 22" id="css--check-circle" xmlns="http://www.w3.org/2000/svg"><g clip-path="url(#aclip0_11_47)" fill="#E00179"><path d="M11 20.625a9.625 9.625 0 110-19.25 9.625 9.625 0 010 19.25zM11 22a11 11 0 100-22 11 11 0 000 22z"/><path d="M15.084 6.834a.32.32 0 00-.028.03l-4.775 6.084-2.878-2.879a1.031 1.031 0 00-1.458 1.458l3.639 3.64a1.03 1.03 0 001.483-.028l5.49-6.861a1.031 1.031 0 00-1.473-1.444z"/></g><defs><clipPath id="aclip0_11_47"><path fill="#fff" d="M0 0h22v22H0z"/></clipPath></defs></svg></svg>